<mxfile host="65bd71144e">
    <diagram name="ページ1" id="FL6XOQ-P3k_mCRHXE3k5">
        <mxGraphModel dx="566" dy="2028" grid="1" gridSize="10" guides="1" tooltips="1" connect="1" arrows="1" fold="1" page="1" pageScale="1" pageWidth="1169" pageHeight="827" math="0" shadow="0">
            <root>
                <mxCell id="0"/>
                <mxCell id="1" parent="0"/>
                <mxCell id="33" style="edgeStyle=none;rounded=0;html=1;entryX=0.091;entryY=0.994;entryDx=0;entryDy=0;startArrow=classic;startFill=1;endArrow=none;endFill=0;exitX=0;exitY=0.5;exitDx=0;exitDy=0;entryPerimeter=0;" edge="1" parent="1" source="6z_fS-_69uKnH_0oTRGQ-11" target="4">
                    <mxGeometry relative="1" as="geometry">
                        <Array as="points">
                            <mxPoint x="495" y="-1220"/>
                        </Array>
                    </mxGeometry>
                </mxCell>
                <mxCell id="82" value="12bit" style="edgeLabel;html=1;align=center;verticalAlign=middle;resizable=0;points=[];" vertex="1" connectable="0" parent="33">
                    <mxGeometry x="0.7135" y="-1" relative="1" as="geometry">
                        <mxPoint as="offset"/>
                    </mxGeometry>
                </mxCell>
                <mxCell id="36" style="edgeStyle=none;rounded=0;html=1;startArrow=none;startFill=0;endArrow=classic;endFill=1;exitX=0.272;exitY=0.333;exitDx=0;exitDy=0;exitPerimeter=0;entryX=0.573;entryY=1.011;entryDx=0;entryDy=0;entryPerimeter=0;" edge="1" parent="1" source="dDtKkb987Jfwz-Kflepq-34" target="14">
                    <mxGeometry relative="1" as="geometry">
                        <mxPoint x="361.7099999999998" y="-1141.52" as="sourcePoint"/>
                        <mxPoint x="330" y="-1340" as="targetPoint"/>
                    </mxGeometry>
                </mxCell>
                <mxCell id="dDtKkb987Jfwz-Kflepq-34" value="ADDRESS BUS (8bits)" style="html=1;shadow=0;dashed=0;align=center;verticalAlign=middle;shape=mxgraph.arrows2.twoWayArrow;dy=0.6;dx=35;strokeWidth=2;" parent="1" vertex="1">
                    <mxGeometry x="50" y="-1160" width="1030" height="60" as="geometry"/>
                </mxCell>
                <mxCell id="34" style="edgeStyle=none;rounded=0;html=1;startArrow=none;startFill=0;endArrow=classic;endFill=1;entryX=0.438;entryY=1.008;entryDx=0;entryDy=0;entryPerimeter=0;" edge="1" parent="1" source="6z_fS-_69uKnH_0oTRGQ-11" target="6z_fS-_69uKnH_0oTRGQ-14">
                    <mxGeometry relative="1" as="geometry">
                        <mxPoint x="760" y="-1260" as="targetPoint"/>
                    </mxGeometry>
                </mxCell>
                <mxCell id="83" value="12bit" style="edgeLabel;html=1;align=center;verticalAlign=middle;resizable=0;points=[];" vertex="1" connectable="0" parent="34">
                    <mxGeometry x="-0.4725" y="-3" relative="1" as="geometry">
                        <mxPoint as="offset"/>
                    </mxGeometry>
                </mxCell>
                <mxCell id="6z_fS-_69uKnH_0oTRGQ-11" value="PC(12bits)" style="rounded=0;whiteSpace=wrap;html=1;" parent="1" vertex="1">
                    <mxGeometry x="700" y="-1240" width="120" height="40" as="geometry"/>
                </mxCell>
                <mxCell id="31" style="edgeStyle=none;rounded=0;html=1;entryX=0.5;entryY=1;entryDx=0;entryDy=0;startArrow=none;startFill=0;endArrow=classic;endFill=1;" edge="1" parent="1" source="6z_fS-_69uKnH_0oTRGQ-14" target="6z_fS-_69uKnH_0oTRGQ-42">
                    <mxGeometry relative="1" as="geometry">
                        <Array as="points">
                            <mxPoint x="920" y="-1370"/>
                        </Array>
                    </mxGeometry>
                </mxCell>
                <mxCell id="32" style="edgeStyle=none;rounded=0;html=1;entryX=0.554;entryY=0.742;entryDx=0;entryDy=0;entryPerimeter=0;startArrow=none;startFill=0;endArrow=classic;endFill=1;" edge="1" parent="1" source="6z_fS-_69uKnH_0oTRGQ-14">
                    <mxGeometry relative="1" as="geometry">
                        <mxPoint x="770.6200000000001" y="-1545.48" as="targetPoint"/>
                    </mxGeometry>
                </mxCell>
                <mxCell id="6z_fS-_69uKnH_0oTRGQ-14" value="ROM(up to 4k*8bits)" style="shape=datastore;whiteSpace=wrap;html=1;" parent="1" vertex="1">
                    <mxGeometry x="690" y="-1440" width="160" height="140" as="geometry"/>
                </mxCell>
                <mxCell id="KuC0_Bz1xYqySThhGlDS-9" value="特記なきバスは8bit" style="text;html=1;align=center;verticalAlign=middle;whiteSpace=wrap;rounded=0;" parent="1" vertex="1">
                    <mxGeometry x="515" y="-1110" width="140" height="30" as="geometry"/>
                </mxCell>
                <mxCell id="10" value="" style="group" vertex="1" connectable="0" parent="1">
                    <mxGeometry x="480" y="-1510" width="170" height="100" as="geometry"/>
                </mxCell>
                <mxCell id="6z_fS-_69uKnH_0oTRGQ-61" value="" style="group;rotation=0;" parent="10" vertex="1" connectable="0">
                    <mxGeometry x="110" y="40" width="60" height="60" as="geometry"/>
                </mxCell>
                <mxCell id="6z_fS-_69uKnH_0oTRGQ-56" value="" style="verticalLabelPosition=bottom;shadow=0;dashed=0;align=center;html=1;verticalAlign=top;shape=mxgraph.electrical.logic_gates.d_type_flip-flop;rotation=0;" parent="6z_fS-_69uKnH_0oTRGQ-61" vertex="1">
                    <mxGeometry width="50" height="40" as="geometry"/>
                </mxCell>
                <mxCell id="6z_fS-_69uKnH_0oTRGQ-60" value="C" style="text;html=1;align=center;verticalAlign=middle;whiteSpace=wrap;rounded=0;rotation=0;" parent="6z_fS-_69uKnH_0oTRGQ-61" vertex="1">
                    <mxGeometry x="10" y="8.12" width="30" height="23.762376237623762" as="geometry"/>
                </mxCell>
                <mxCell id="4" value="" style="rounded=0;whiteSpace=wrap;html=1;fillColor=none;dashed=1;" vertex="1" parent="6z_fS-_69uKnH_0oTRGQ-61">
                    <mxGeometry x="-110" y="-20" width="170" height="80" as="geometry"/>
                </mxCell>
                <mxCell id="6z_fS-_69uKnH_0oTRGQ-65" value="" style="group;rotation=0;" parent="6z_fS-_69uKnH_0oTRGQ-61" vertex="1" connectable="0">
                    <mxGeometry x="-50" y="-0.13000000000010914" width="50" height="40.13" as="geometry"/>
                </mxCell>
                <mxCell id="6z_fS-_69uKnH_0oTRGQ-63" value="" style="verticalLabelPosition=bottom;shadow=0;dashed=0;align=center;html=1;verticalAlign=top;shape=mxgraph.electrical.logic_gates.d_type_flip-flop;rotation=0;" parent="6z_fS-_69uKnH_0oTRGQ-65" vertex="1">
                    <mxGeometry width="50" height="40" as="geometry"/>
                </mxCell>
                <mxCell id="6z_fS-_69uKnH_0oTRGQ-64" value="B" style="text;html=1;align=center;verticalAlign=middle;whiteSpace=wrap;rounded=0;rotation=0;" parent="6z_fS-_69uKnH_0oTRGQ-65" vertex="1">
                    <mxGeometry x="10" y="8" width="30" height="23.762376237623762" as="geometry"/>
                </mxCell>
                <mxCell id="6" value="" style="group;rotation=0;" vertex="1" connectable="0" parent="6z_fS-_69uKnH_0oTRGQ-61">
                    <mxGeometry x="-100" y="-0.13000000000010914" width="50" height="40.13" as="geometry"/>
                </mxCell>
                <mxCell id="7" value="" style="verticalLabelPosition=bottom;shadow=0;dashed=0;align=center;html=1;verticalAlign=top;shape=mxgraph.electrical.logic_gates.d_type_flip-flop;rotation=0;" vertex="1" parent="6">
                    <mxGeometry width="50" height="40" as="geometry"/>
                </mxCell>
                <mxCell id="8" value="A" style="text;html=1;align=center;verticalAlign=middle;whiteSpace=wrap;rounded=0;rotation=90;" vertex="1" parent="6">
                    <mxGeometry x="10" y="8" width="30" height="23.762376237623762" as="geometry"/>
                </mxCell>
                <mxCell id="9" value="スタック" style="text;html=1;strokeColor=none;fillColor=none;align=center;verticalAlign=middle;whiteSpace=wrap;rounded=0;dashed=1;fontStyle=1" vertex="1" parent="10">
                    <mxGeometry width="60" height="20" as="geometry"/>
                </mxCell>
                <mxCell id="21" style="edgeStyle=none;html=1;entryX=0.324;entryY=0.723;entryDx=0;entryDy=0;entryPerimeter=0;startArrow=classic;startFill=1;exitX=0.75;exitY=0;exitDx=0;exitDy=0;" edge="1" parent="1" source="14" target="dDtKkb987Jfwz-Kflepq-8">
                    <mxGeometry relative="1" as="geometry">
                        <mxPoint x="359.64999999999986" y="-1545.96" as="targetPoint"/>
                    </mxGeometry>
                </mxCell>
                <mxCell id="19" value="" style="group" vertex="1" connectable="0" parent="1">
                    <mxGeometry x="880" y="-1530" width="80" height="110" as="geometry"/>
                </mxCell>
                <mxCell id="PgDK6xRRdv0KBnLI8OND-41" value="" style="whiteSpace=wrap;html=1;fillColor=none;dashed=1;" parent="19" vertex="1">
                    <mxGeometry width="80" height="110" as="geometry"/>
                </mxCell>
                <mxCell id="6z_fS-_69uKnH_0oTRGQ-42" value="&lt;font style=&quot;font-size: 18px;&quot;&gt;Decode&lt;/font&gt;" style="text;html=1;align=center;verticalAlign=middle;whiteSpace=wrap;rounded=0;" parent="19" vertex="1">
                    <mxGeometry x="10" y="80" width="60" height="30" as="geometry"/>
                </mxCell>
                <mxCell id="30" style="edgeStyle=none;rounded=0;html=1;startArrow=none;startFill=0;endArrow=classic;endFill=1;" edge="1" parent="19" source="6z_fS-_69uKnH_0oTRGQ-47" target="PgDK6xRRdv0KBnLI8OND-41">
                    <mxGeometry relative="1" as="geometry"/>
                </mxCell>
                <mxCell id="6z_fS-_69uKnH_0oTRGQ-47" value="&lt;font style=&quot;font-size: 18px;&quot;&gt;Control Lines&lt;/font&gt;" style="text;html=1;align=center;verticalAlign=middle;whiteSpace=wrap;rounded=0;" parent="19" vertex="1">
                    <mxGeometry x="10" y="10" width="60" height="40" as="geometry"/>
                </mxCell>
                <mxCell id="6z_fS-_69uKnH_0oTRGQ-51" style="edgeStyle=orthogonalEdgeStyle;rounded=0;orthogonalLoop=1;jettySize=auto;html=1;exitX=0;exitY=0;exitDx=0;exitDy=0;entryX=0;entryY=1;entryDx=0;entryDy=0;" parent="19" source="6z_fS-_69uKnH_0oTRGQ-42" target="6z_fS-_69uKnH_0oTRGQ-47" edge="1">
                    <mxGeometry relative="1" as="geometry"/>
                </mxCell>
                <mxCell id="6z_fS-_69uKnH_0oTRGQ-52" style="edgeStyle=orthogonalEdgeStyle;rounded=0;orthogonalLoop=1;jettySize=auto;html=1;exitX=0.25;exitY=0;exitDx=0;exitDy=0;entryX=0.25;entryY=1;entryDx=0;entryDy=0;" parent="19" source="6z_fS-_69uKnH_0oTRGQ-42" target="6z_fS-_69uKnH_0oTRGQ-47" edge="1">
                    <mxGeometry relative="1" as="geometry"/>
                </mxCell>
                <mxCell id="6z_fS-_69uKnH_0oTRGQ-53" style="edgeStyle=orthogonalEdgeStyle;rounded=0;orthogonalLoop=1;jettySize=auto;html=1;exitX=0.5;exitY=0;exitDx=0;exitDy=0;entryX=0.5;entryY=1;entryDx=0;entryDy=0;" parent="19" source="6z_fS-_69uKnH_0oTRGQ-42" target="6z_fS-_69uKnH_0oTRGQ-47" edge="1">
                    <mxGeometry relative="1" as="geometry"/>
                </mxCell>
                <mxCell id="6z_fS-_69uKnH_0oTRGQ-54" style="edgeStyle=orthogonalEdgeStyle;rounded=0;orthogonalLoop=1;jettySize=auto;html=1;exitX=0.75;exitY=0;exitDx=0;exitDy=0;entryX=0.75;entryY=1;entryDx=0;entryDy=0;" parent="19" source="6z_fS-_69uKnH_0oTRGQ-42" target="6z_fS-_69uKnH_0oTRGQ-47" edge="1">
                    <mxGeometry relative="1" as="geometry"/>
                </mxCell>
                <mxCell id="6z_fS-_69uKnH_0oTRGQ-55" style="edgeStyle=orthogonalEdgeStyle;rounded=0;orthogonalLoop=1;jettySize=auto;html=1;exitX=1;exitY=0;exitDx=0;exitDy=0;entryX=1;entryY=1;entryDx=0;entryDy=0;" parent="19" source="6z_fS-_69uKnH_0oTRGQ-42" target="6z_fS-_69uKnH_0oTRGQ-47" edge="1">
                    <mxGeometry relative="1" as="geometry"/>
                </mxCell>
                <mxCell id="18" value="" style="edgeStyle=none;html=1;" edge="1" parent="19" source="6z_fS-_69uKnH_0oTRGQ-42" target="6z_fS-_69uKnH_0oTRGQ-47">
                    <mxGeometry relative="1" as="geometry"/>
                </mxCell>
                <mxCell id="26" style="edgeStyle=none;html=1;startArrow=classic;startFill=1;endArrow=none;endFill=0;entryX=0.5;entryY=0;entryDx=0;entryDy=42;entryPerimeter=0;" edge="1" parent="1" source="4" target="dDtKkb987Jfwz-Kflepq-8">
                    <mxGeometry relative="1" as="geometry">
                        <mxPoint x="415" y="-1560" as="targetPoint"/>
                    </mxGeometry>
                </mxCell>
                <mxCell id="dDtKkb987Jfwz-Kflepq-8" value="DATA BUS(4bits)" style="html=1;shadow=0;dashed=0;align=center;verticalAlign=middle;shape=mxgraph.arrows2.twoWayArrow;dy=0.6;dx=35;" parent="1" vertex="1">
                    <mxGeometry x="50" y="-1590" width="1030" height="60" as="geometry"/>
                </mxCell>
                <mxCell id="27" value="" style="group" vertex="1" connectable="0" parent="1">
                    <mxGeometry x="505" y="-1380" width="120" height="40.000000000000014" as="geometry"/>
                </mxCell>
                <mxCell id="6z_fS-_69uKnH_0oTRGQ-2" value="" style="shape=trapezoid;perimeter=trapezoidPerimeter;whiteSpace=wrap;html=1;fixedSize=1;rotation=-180;size=20;" parent="27" vertex="1">
                    <mxGeometry y="7.105427357601002e-15" width="120" height="40" as="geometry"/>
                </mxCell>
                <mxCell id="PgDK6xRRdv0KBnLI8OND-22" value="ALU" style="text;html=1;align=center;verticalAlign=middle;whiteSpace=wrap;rounded=0;fontSize=16;" parent="27" vertex="1">
                    <mxGeometry x="30" y="5.000000000000007" width="60" height="30" as="geometry"/>
                </mxCell>
                <mxCell id="28" style="edgeStyle=none;html=1;exitX=0.5;exitY=1;exitDx=0;exitDy=0;entryX=0.5;entryY=0;entryDx=0;entryDy=0;startArrow=none;startFill=0;endArrow=classic;endFill=1;" edge="1" parent="1" source="4" target="PgDK6xRRdv0KBnLI8OND-22">
                    <mxGeometry relative="1" as="geometry"/>
                </mxCell>
                <mxCell id="29" style="edgeStyle=none;html=1;entryX=0.458;entryY=0.749;entryDx=0;entryDy=0;entryPerimeter=0;startArrow=none;startFill=0;endArrow=classic;endFill=1;rounded=0;exitX=0.5;exitY=0;exitDx=0;exitDy=0;" edge="1" parent="1" source="6z_fS-_69uKnH_0oTRGQ-2">
                    <mxGeometry relative="1" as="geometry">
                        <mxPoint x="671.7400000000002" y="-1545.06" as="targetPoint"/>
                        <Array as="points">
                            <mxPoint x="565" y="-1310"/>
                            <mxPoint x="670" y="-1310"/>
                            <mxPoint x="670" y="-1360"/>
                        </Array>
                    </mxGeometry>
                </mxCell>
                <mxCell id="38" value="" style="group" vertex="1" connectable="0" parent="1">
                    <mxGeometry x="120" y="-1519.46" width="350" height="179.46" as="geometry"/>
                </mxCell>
                <mxCell id="14" value="" style="rounded=0;whiteSpace=wrap;html=1;fillColor=none;strokeColor=default;dashed=1;" vertex="1" parent="38">
                    <mxGeometry y="19.999999999999996" width="350.00000000000006" height="159.45999999999998" as="geometry"/>
                </mxCell>
                <mxCell id="6z_fS-_69uKnH_0oTRGQ-75" value="RAM&lt;br&gt;(up to 256*4bits)" style="shape=datastore;whiteSpace=wrap;html=1;" parent="38" vertex="1">
                    <mxGeometry x="112.90322580645163" y="39.46000000000003" width="101.61290322580646" height="119.99999999999999" as="geometry"/>
                </mxCell>
                <mxCell id="12" value="Resister&lt;br&gt;(up to 16*4bits)" style="shape=datastore;whiteSpace=wrap;html=1;" vertex="1" parent="38">
                    <mxGeometry x="225.80645161290326" y="39.46000000000003" width="101.61290322580646" height="119.99999999999999" as="geometry"/>
                </mxCell>
                <mxCell id="20" value="RAM" style="text;html=1;strokeColor=none;fillColor=none;align=center;verticalAlign=middle;whiteSpace=wrap;rounded=0;dashed=1;fontStyle=1" vertex="1" parent="38">
                    <mxGeometry width="67.74193548387098" height="19.999999999999996" as="geometry"/>
                </mxCell>
                <mxCell id="37" value="I/O" style="shape=datastore;whiteSpace=wrap;html=1;rounded=0;strokeColor=default;fillColor=none;" vertex="1" parent="38">
                    <mxGeometry x="11.290322580645162" y="39.73000000000001" width="90.3225806451613" height="119.99999999999999" as="geometry"/>
                </mxCell>
                <mxCell id="93" style="edgeStyle=none;rounded=0;html=1;entryX=0.437;entryY=0.297;entryDx=0;entryDy=0;entryPerimeter=0;startArrow=none;startFill=0;endArrow=classic;endFill=1;exitX=1;exitY=0.5;exitDx=0;exitDy=-5;exitPerimeter=0;" edge="1" parent="1" source="92" target="dDtKkb987Jfwz-Kflepq-34">
                    <mxGeometry relative="1" as="geometry">
                        <mxPoint x="500" y="-1190" as="sourcePoint"/>
                    </mxGeometry>
                </mxCell>
                <mxCell id="92" value="Mux" style="shadow=0;dashed=0;align=center;html=1;strokeWidth=1;shape=mxgraph.electrical.abstract.mux2;rounded=0;strokeColor=default;fillColor=default;rotation=90;" vertex="1" parent="1">
                    <mxGeometry x="470" y="-1280" width="55" height="120" as="geometry"/>
                </mxCell>
            </root>
        </mxGraphModel>
    </diagram>
</mxfile>